<?xml version="1.0" encoding="UTF-8"?>
<svg version="1.1" xmlns="http://www.w3.org/2000/svg" width="500" height="500">
<path d="M0 0 C165 0 330 0 500 0 C500 165 500 330 500 500 C335 500 170 500 0 500 C0 335 0 170 0 0 Z " fill="#000000" transform="translate(0,0)"/>
<path d="M0 0 C11.86821501 9.21088929 21.33843241 20.97410642 27 35 C27 35.66 27 36.32 27 37 C25.33324219 36.91298828 25.33324219 36.91298828 23.6328125 36.82421875 C15.47500374 36.5306734 9.10602674 36.36607146 1.98046875 40.90625 C0 42 0 42 -4 42 C-5.45703125 40.27734375 -5.45703125 40.27734375 -6.8125 37.9375 C-13.43497749 27.4368471 -22.82774136 20.48848944 -34.875 17.0625 C-48.95210385 14.10373535 -62.91065878 15.81776008 -75.33984375 23.16796875 C-86.01082874 30.51700246 -94.35026038 42.10746621 -97 55 C-98.37249968 71.28068583 -96.2195369 84.80824719 -86 98 C-78.22862005 106.79311516 -66.53547411 113.30588448 -54.83984375 114.8515625 C-39.96926315 115.62884182 -26.81014587 112.23404646 -15 103 C-9.98406876 98.23697286 -6.13955728 93.14829968 -3 87 C-2.18015625 87.42152344 -1.3603125 87.84304687 -0.515625 88.27734375 C0.56203125 88.82519531 1.6396875 89.37304688 2.75 89.9375 C3.81734375 90.48277344 4.8846875 91.02804688 5.984375 91.58984375 C12.68635225 94.72379943 19.84327027 94.846898 27 93 C24.67674355 108.0201231 10.97249775 122.04394594 -0.58984375 131.0078125 C-10.31101881 137.52757803 -22.2909148 143.44488712 -34 145 C-34.721875 145.10828125 -35.44375 145.2165625 -36.1875 145.328125 C-56.97156581 148.07046702 -78.92993659 143.42999276 -95.75 130.5625 C-97.17427837 129.3841402 -98.59126327 128.19689662 -100 127 C-100.99773437 126.21882813 -100.99773437 126.21882813 -102.015625 125.421875 C-114.80330564 115.05076393 -124.47220584 98.16407363 -127.59765625 81.96484375 C-130.05636311 57.73583923 -127.30319129 35.17122818 -112 15.5 C-110.68723964 13.98196244 -109.35479944 12.48064049 -108 11 C-107.40960938 10.31808594 -106.81921875 9.63617188 -106.2109375 8.93359375 C-78.77131682 -20.89969597 -32.20898771 -22.27652069 0 0 Z " fill="#FEFEFE" transform="translate(298,158)"/>
<path d="M0 0 C3.62525852 3.03510016 5.30553165 5.00063084 6.109375 9.734375 C6.50647068 15.26316864 6.02674219 18.59018622 2.375 22.875 C-0.9911193 26.3328584 -3.76705984 27.4032109 -8.5625 27.5625 C-13.34218132 27.47700977 -16.7526206 26.51552245 -20.3125 23.25 C-23.35062536 19.37135581 -24.65630101 15.6189381 -24.4375 10.6875 C-23.58273337 5.69704431 -21.17346282 2.44184983 -17.3125 -0.75 C-11.35810991 -3.85663831 -5.76562201 -3.04598899 0 0 Z " fill="#218A21" transform="translate(324.3125,210.75)"/>
<path d="M0 0 C3.17852316 1.64448689 5.37801764 3.75603527 7 7 C7.37766377 12.00404498 7.11200434 14.99885156 4 19 C0.03924452 22.61101989 -3.18965476 22.49452144 -8.36328125 22.36328125 C-11.88184747 21.87850102 -13.66782923 20.64312687 -16 18 C-17.84862688 14.30274625 -17.47587094 10.03538558 -17 6 C-12.80336953 -0.85449644 -7.54887391 -0.97816394 0 0 Z " fill="#E0E0E0" transform="translate(161,316)"/>
<path d="M0 0 C13.39615385 -0.37211538 13.39615385 -0.37211538 16.453125 1.51171875 C16.96359375 2.00285156 17.4740625 2.49398438 18 3 C17.8125 6.3125 17.8125 6.3125 17 10 C14.4375 11.9375 14.4375 11.9375 12 13 C12.60328125 13.08121094 13.2065625 13.16242188 13.828125 13.24609375 C16.68175609 14.23665274 17.27109721 15.47442011 18.75 18.0625 C19.17796875 18.79597656 19.6059375 19.52945312 20.046875 20.28515625 C20.36140625 20.85105469 20.6759375 21.41695313 21 22 C17.9375 22.5625 17.9375 22.5625 14 22 C11.24862054 19.27517826 9.11251255 16.23618944 7 13 C6.67 15.97 6.34 18.94 6 22 C4.02 22 2.04 22 0 22 C0 14.74 0 7.48 0 0 Z " fill="#DCDCDC" transform="translate(312,316)"/>
<path d="M0 0 C3.16015625 -0.375 3.16015625 -0.375 7 0 C9.19801005 2.00960919 10.7187902 3.64836009 12.4375 6 C12.88287109 6.57234375 13.32824219 7.1446875 13.78710938 7.734375 C14.87753708 9.1413785 15.94151612 10.56881053 17 12 C17.16494341 7.09293348 16.45324397 4.29317695 14 0 C15.65 0 17.3 0 19 0 C19 7.26 19 14.52 19 22 C14.27577811 20.81894453 12.74686901 18.76383699 9.875 15.125 C9.43285156 14.58230469 8.99070313 14.03960937 8.53515625 13.48046875 C6.56782195 11.04953302 4.73568079 8.60352118 3 6 C2.91846067 7.58246707 2.86056443 9.16616273 2.8125 10.75 C2.77769531 11.63171875 2.74289063 12.5134375 2.70703125 13.421875 C3.05291312 16.46563543 4.07793359 17.67939489 6 20 C6 20.66 6 21.32 6 22 C4.33388095 22.042721 2.66617115 22.04063832 1 22 C0 21 0 21 -0.11352539 18.95874023 C-0.10828857 18.08419189 -0.10305176 17.20964355 -0.09765625 16.30859375 C-0.09443359 15.36435547 -0.09121094 14.42011719 -0.08789062 13.44726562 C-0.07951172 12.45404297 -0.07113281 11.46082031 -0.0625 10.4375 C-0.05798828 9.44041016 -0.05347656 8.44332031 -0.04882812 7.41601562 C-0.03700007 4.94395151 -0.02051849 2.47200482 0 0 Z " fill="#F6F6F6" transform="translate(236,316)"/>
<path d="M0 0 C1.28132812 0.00902344 2.56265625 0.01804687 3.8828125 0.02734375 C4.87023437 0.03894531 5.85765625 0.05054688 6.875 0.0625 C6.875 2.0425 6.875 4.0225 6.875 6.0625 C4.40729066 5.63703287 3.16300359 5.37554738 1.4375 3.5 C-0.10243496 1.78312597 -0.10243496 1.78312597 -2.8125 1.875 C-3.575625 1.936875 -4.33875 1.99875 -5.125 2.0625 C-5.9980145 5.10396988 -6.31715584 7.90035259 -6.375 11.0625 C-6.40078125 11.908125 -6.4265625 12.75375 -6.453125 13.625 C-6.06137521 16.53514128 -5.04078046 17.8845601 -3.125 20.0625 C-0.63641113 19.63343295 0.62396408 19.31353592 2.4375 17.5 C2.911875 17.025625 3.38625 16.55125 3.875 16.0625 C4.865 16.0625 5.855 16.0625 6.875 16.0625 C6.875 18.0425 6.875 20.0225 6.875 22.0625 C4.64691841 22.17103983 2.41730068 22.24833307 0.1875 22.3125 C-1.05386719 22.35890625 -2.29523438 22.4053125 -3.57421875 22.453125 C-7.6946687 21.99983018 -9.23287892 20.95998679 -12.125 18.0625 C-13.97362688 14.36524625 -13.60087094 10.09788558 -13.125 6.0625 C-9.45718235 0.07173117 -6.74005696 -0.06127325 0 0 Z " fill="#F4F4F4" transform="translate(197.125,315.9375)"/>
<path d="M0 0 C6.6 0 13.2 0 20 0 C20 2.31 20 4.62 20 7 C19.34 7 18.68 7 18 7 C16.68 5.35 15.36 3.7 14 2 C13.67 8.6 13.34 15.2 13 22 C11.02 22 9.04 22 7 22 C6.67 15.4 6.34 8.8 6 2 C4.68 3.65 3.36 5.3 2 7 C1.34 7 0.68 7 0 7 C0 4.69 0 2.38 0 0 Z " fill="#FBFBFB" transform="translate(261,316)"/>
<path d="M0 0 C2.5 0.5625 2.5 0.5625 4.1328125 2.2578125 C6.59106739 6.40172789 6.00395918 10.89569993 5.5 15.5625 C4.3125 18.75 4.3125 18.75 2.5 20.5625 C-0.1875 20.875 -0.1875 20.875 -2.5 20.5625 C-5.60319468 15.51980865 -6.27489779 11.33708081 -5.5 5.5625 C-3.6626607 0.82409866 -3.6626607 0.82409866 0 0 Z " fill="#060606" transform="translate(155.5,316.4375)"/>
<path d="M0 0 C5.28 0 10.56 0 16 0 C16 1.65 16 3.3 16 5 C13.13275314 4.42655063 12.1385485 4.1385485 10 2 C8.35 1.67 6.7 1.34 5 1 C5 7.6 5 14.2 5 21 C10.60221806 19.49823342 10.60221806 19.49823342 13.1875 17.3125 C13.785625 16.879375 14.38375 16.44625 15 16 C15.99 16.33 16.98 16.66 18 17 C17.01 19.475 17.01 19.475 16 22 C10.72 22 5.44 22 0 22 C0 14.74 0 7.48 0 0 Z " fill="#FEFEFE" transform="translate(212,316)"/>
<path d="M0 0 C2.7578125 -0.30078125 2.7578125 -0.30078125 6 0 C10.00833744 3.82345103 12.67917044 8.6888915 13.44140625 14.1796875 C13.43797117 16.82469754 13.31978695 19.37571666 13 22 C11.02 22 9.04 22 7 22 C6.99742187 21.31035156 6.99484375 20.62070312 6.9921875 19.91015625 C6.71490397 13.17216651 5.39313528 9.13271484 1.27734375 3.77734375 C0 2 0 2 0 0 Z " fill="#EFEFEF" transform="translate(337,316)"/>
<path d="M0 0 C1.98 0 3.96 0 6 0 C6.33 6.93 6.66 13.86 7 21 C10.96 20.505 10.96 20.505 15 20 C14.67 20.66 14.34 21.32 14 22 C12.41820385 22.10867302 10.83422847 22.18589827 9.25 22.25 C8.36828125 22.29640625 7.4865625 22.3428125 6.578125 22.390625 C4 22 4 22 1.6875 20.5625 C-0.84440748 16.71775161 -0.43252199 13.24284894 -0.25 8.75 C-0.23195313 7.90953125 -0.21390625 7.0690625 -0.1953125 6.203125 C-0.14830798 4.13492605 -0.07656724 2.06731559 0 0 Z " fill="#F0F0F0" transform="translate(287,316)"/>
<path d="M0 0 C1.98 0 3.96 0 6 0 C6 7.26 6 14.52 6 22 C4.02 22 2.04 22 0 22 C0 14.74 0 7.48 0 0 Z " fill="#EBEBEB" transform="translate(312,316)"/>
<path d="M0 0 C1.11375 0.1546875 1.11375 0.1546875 2.25 0.3125 C1.92 0.951875 1.59 1.59125 1.25 2.25 C-0.7717317 8.44155333 -0.21482626 14.30448599 2.25 20.3125 C0 20.625 0 20.625 -2.75 20.3125 C-5.45880011 18.11617559 -6.57535236 16.38861171 -7.13671875 12.9296875 C-7.32117065 8.66821265 -7.11249286 5.98378307 -5.0625 2.1875 C-2.75 0.3125 -2.75 0.3125 0 0 Z " fill="#F4F4F4" transform="translate(150.75,316.6875)"/>
<path d="M0 0 C2.9765625 2.68017578 2.9765625 2.68017578 3.1875 5.55859375 C3.06266889 7.47527142 2.93766935 9.39193814 2.8125 11.30859375 C3.03411039 14.48962629 3.9827768 15.60980063 6 18 C6 18.66 6 19.32 6 20 C4.33388095 20.042721 2.66617115 20.04063832 1 20 C0 19 0 19 -0.11352539 17.14233398 C-0.10828857 16.35157471 -0.10305176 15.56081543 -0.09765625 14.74609375 C-0.09443359 13.89208984 -0.09121094 13.03808594 -0.08789062 12.15820312 C-0.07951172 11.26037109 -0.07113281 10.36253906 -0.0625 9.4375 C-0.05798828 8.53580078 -0.05347656 7.63410156 -0.04882812 6.70507812 C-0.03700225 4.46998686 -0.0205222 2.23502563 0 0 Z " fill="#4F4F4F" transform="translate(236,318)"/>
<path d="M0 0 C2.97 0.495 2.97 0.495 6 1 C6.125 4.375 6.125 4.375 6 8 C5.34 8.66 4.68 9.32 4 10 C2.68 10 1.36 10 0 10 C0 6.7 0 3.4 0 0 Z " fill="#0B0B0B" transform="translate(318,317)"/>
<path d="M0 0 C1.65 0 3.3 0 5 0 C5 4.29 5 8.58 5 13 C0 9 0 9 -0.48828125 6.640625 C-0.43027344 5.85171875 -0.37226563 5.0628125 -0.3125 4.25 C-0.26738281 3.45078125 -0.22226562 2.6515625 -0.17578125 1.828125 C-0.11777344 1.22484375 -0.05976563 0.6215625 0 0 Z " fill="#E9E9E9" transform="translate(299,316)"/>
<path d="M0 0 C3.1875 -0.5 3.1875 -0.5 7 0 C9.15024236 2.42700622 10.59103494 5.09116891 12 8 C8.8125 8.4375 8.8125 8.4375 5 8 C2.86005761 5.93421402 1.36975681 3.63220548 0 1 C0 0.67 0 0.34 0 0 Z " fill="#F0F0F0" transform="translate(321,330)"/>
<path d="M0 0 C2.64 0 5.28 0 8 0 C8 7.26 8 14.52 8 22 C7.67 22 7.34 22 7 22 C6.67 15.4 6.34 8.8 6 2 C4.68 3.65 3.36 5.3 2 7 C1.34 7 0.68 7 0 7 C0 4.69 0 2.38 0 0 Z " fill="#C4C4C4" transform="translate(261,316)"/>
<path d="M0 0 C0.99 0 1.98 0 3 0 C3 1.98 3 3.96 3 6 C-1.62 6 -6.24 6 -11 6 C-7 4 -7 4 -4.9375 3.5625 C-2.88408394 3.13508329 -2.88408394 3.13508329 -1.4375 1.4375 C-0.963125 0.963125 -0.48875 0.48875 0 0 Z " fill="#D3D3D3" transform="translate(201,332)"/>
<path d="M0 0 C4.62 0 9.24 0 14 0 C14 1.98 14 3.96 14 6 C10.31979695 5.36548223 10.31979695 5.36548223 8.6875 3.5 C6.10242973 1.20215976 3.35203062 1.3162293 0 1 C0 0.67 0 0.34 0 0 Z " fill="#D3D3D3" transform="translate(190,316)"/>
<path d="M0 0 C1.65 0 3.3 0 5 0 C5 7.26 5 14.52 5 22 C4.67 22 4.34 22 4 22 C3.96261719 20.91460937 3.92523438 19.82921875 3.88671875 18.7109375 C3.82102125 17.26559261 3.75457524 15.82028161 3.6875 14.375 C3.66494141 13.66214844 3.64238281 12.94929688 3.61914062 12.21484375 C3.37993032 7.47413052 2.45735603 4.17684645 0 0 Z " fill="#B8B8B8" transform="translate(250,316)"/>
<path d="M0 0 C0.99 0.33 1.98 0.66 3 1 C2.34 2.65 1.68 4.3 1 6 C-2.63 6 -6.26 6 -10 6 C-10 5.67 -10 5.34 -10 5 C-9.0925 4.731875 -8.185 4.46375 -7.25 4.1875 C-4.02412151 3.19421922 -4.02412151 3.19421922 -1.8125 1.3125 C-1.214375 0.879375 -0.61625 0.44625 0 0 Z " fill="#E3E3E3" transform="translate(227,332)"/>
<path d="M0 0 C2.31 0 4.62 0 7 0 C7 2.31 7 4.62 7 7 C6.34 7 5.68 7 5 7 C3.7109375 5.46875 3.7109375 5.46875 2.375 3.5 C1.70597656 2.52546875 1.70597656 2.52546875 1.0234375 1.53125 C0.68570312 1.0259375 0.34796875 0.520625 0 0 Z " fill="#ECECEC" transform="translate(274,316)"/>
<path d="M0 0 C3.63 0 7.26 0 11 0 C11 1.65 11 3.3 11 5 C8.13275314 4.42655063 7.1385485 4.1385485 5 2 C2.42938689 1.35232207 2.42938689 1.35232207 0 1 C0 0.67 0 0.34 0 0 Z " fill="#ECECEC" transform="translate(217,316)"/>
<path d="M0 0 C2.31 0 4.62 0 7 0 C6.34 1.65 5.68 3.3 5 5 C4.01 5 3.02 5 2 5 C1.34 3.35 0.68 1.7 0 0 Z " fill="#F1F1F1" transform="translate(350,316)"/>
<path d="M0 0 C1.70884005 1.62339805 3.37446717 3.29319053 5 5 C5 5.66 5 6.32 5 7 C3.35 7 1.7 7 0 7 C0 4.69 0 2.38 0 0 Z " fill="#F2F2F2" transform="translate(237,331)"/>
<path d="M0 0 C1.32 0 2.64 0 4 0 C3.34 2.64 2.68 5.28 2 8 C1.67 8 1.34 8 1 8 C0.67 5.36 0.34 2.72 0 0 Z " fill="#1E7B1E" transform="translate(174,316)"/>
</svg>
